<svg width="25" height="30" fill="none" xmlns="http://www.w3.org/2000/svg"><g clip-path="url(#clip0)" fill="#010002"><path d="M22.597 7.87H3.17c-.677 0-1.128.548-1.004 1.221L5.81 28.78c.124.672.778 1.22 1.455 1.22h11.451c.677 0 1.32-.547 1.444-1.22l3.452-19.69c.124-.673-.327-1.22-1.015-1.22zM9.454 27.377c-.508.092-1.015-.319-1.117-.912L5.765 11.726c-.102-.593.226-1.152.744-1.243.508-.091 1.016.32 1.117.912l2.572 14.727c.102.604-.225 1.163-.744 1.254zm4.377-.97c0 .605-.417 1.096-.947 1.096-.52 0-.948-.49-.948-1.095V11.453c0-.605.417-1.096.948-1.096.518 0 .947.49.947 1.096v14.954zm6.307-14.68l-2.561 14.738c-.102.593-.61 1.004-1.117.912-.508-.09-.846-.65-.745-1.243l2.572-14.726c.102-.593.61-1.004 1.117-.913.508.08.846.64.734 1.232zm-2.11-7.974A1.747 1.747 0 0117.656 3c-.677-3.16-3.994-3-3.994-3h-2.256C8.36 0 7.49 1.745 7.266 3a1.682 1.682 0 01-.317.741c-.282.354-1.218.445-1.895.445H1.23C.553 4.198 0 4.711 0 5.361s.553 1.164 1.23 1.164h22.552c.677 0 1.23-.525 1.23-1.164 0-.639-.553-1.163-1.23-1.163h-3.825c-.677 0-1.624-.092-1.929-.445zm-6.95-1.734h2.528c1.071 0 1.602.502 1.872 1.015a.7.7 0 01-.045.742c-.237.353-1.173.422-1.861.422h-2.46c-.677 0-1.613-.069-1.861-.422a.696.696 0 01-.045-.742c.27-.524.8-1.015 1.873-1.015z"/></g><defs><clipPath id="clip0"><path fill="#fff" d="M0 0h25v30H0z"/></clipPath></defs></svg>