<svg width="55" height="49" fill="none" xmlns="http://www.w3.org/2000/svg"><g clip-path="url(#clip0)" fill="#000"><path d="M14.7 17.5c.3 0 1.6-.2 1.8-.5l7.4-15.6c.3-.5.1-1-.4-1.3-.5-.2-1.1-.1-1.4.4l-8.3 15.6c-.2.5-.1 1 .4 1.3.2 0 .3.1.5.1zm24.9 0c.2 0 .3 0 .5-.1.5-.3.6-.8.4-1.3L32.1.5c-.2-.5-.8-.6-1.3-.4-.5.3-.6.8-.4 1.3L37.8 17c.2.3 1.5.5 1.8.5z"/><path d="M53.3 15.6H1c-.5 0-1 .8-1 1.7 0 1 .4 1.7 1 1.7h1.5l6.7 27.6c.1 1.1 1 2 2.1 2H43c1.1 0 2-.9 2.1-2L51.8 19h1.5c.5 0 1-.8 1-1.7 0-1-.5-1.7-1-1.7zM41.8 43.9c-.1.9-.8 1.6-1.7 1.6H14.2c-.9 0-1.7-.7-1.7-1.6L6.3 18.6H48l-6.2 25.3z"/><path d="M32.938 41H20.96v-2.52l4.3-4.347c1.274-1.305 2.106-2.207 2.497-2.707.39-.508.672-.977.844-1.406.171-.43.257-.875.257-1.336 0-.688-.191-1.2-.574-1.536-.375-.335-.879-.503-1.512-.503-.664 0-1.308.152-1.933.457-.625.304-1.277.738-1.957 1.3l-1.969-2.332c.844-.718 1.543-1.226 2.098-1.523a7.521 7.521 0 011.816-.68 9.094 9.094 0 012.203-.246c1.07 0 2.016.195 2.836.586.82.39 1.457.938 1.91 1.64.453.704.68 1.508.68 2.415 0 .789-.14 1.531-.422 2.226-.273.688-.703 1.395-1.289 2.121-.578.727-1.601 1.762-3.07 3.106l-2.203 2.074v.164h7.465V41z"/></g><defs><clipPath id="clip0"><path fill="#fff" d="M0 0h54.3v48.6H0z"/></clipPath></defs></svg>