<svg width="276" height="59" fill="none" xmlns="http://www.w3.org/2000/svg"><path d="M28.625.688c-2 .125-5.188.187-8.125.187-3.344 0-6.406-.063-8.188-.188V1.97c4.344.187 5.188.843 5.188 5.5v29.25c0 8.843-.219 11.968-1.094 14.656-1.156 3.406-3.968 5.438-7.687 5.438-1.094 0-3.25-.188-4.094-1.032 1.594-.312 2.688-1.406 2.688-3.25 0-2.187-1.532-3.468-3.532-3.468-1.969 0-3.375 1.406-3.375 3.406 0 1.781.969 3.312 3.063 4.406 1.156.594 3 1.156 5.375 1.156 7.312 0 12.094-4.531 13.5-10.437 1.031-4.282 1.093-11.375 1.093-16.688V7.47c0-4.657.844-5.313 5.188-5.5V.687zm29.406 37.124c-2.218 4.782-5.562 6.407-9.406 6.407-4.906 0-9.781-5.125-9.781-13.907 0-1.406.062-2.875.218-4.093h20c0-9.657-4.468-14.063-11.968-14.063-8.782 0-14.469 6.906-14.469 18.157 0 9.812 5.438 16.593 14.719 16.593 6.343 0 10.562-4.312 11.968-8.593l-1.28-.5zM46.844 13.375c4.281 0 6.281 5.375 6.062 11.625H38.97c.687-8.063 4.062-11.625 7.875-11.625zM78 12.156c-4.094 0-7.156 1.219-8.969 2.406-1.781 1.22-3 2.688-3 4.563 0 2.313 1.281 3.969 3.469 3.969 2.281 0 3.75-1.282 3.75-3.469 0-2.094-1.406-3.5-3-3.906 1.469-1.844 4.156-2.281 6.344-2.281 3.312 0 5.937 1.062 5.937 6.437v3.969c0 2.562-3.375 3.656-7.656 5.437-6.406 2.688-10.313 4.938-10.313 10 0 5 3.844 7.157 8.126 7.157 3.062 0 7.093-1.157 9.843-5.688 0 3 1.031 5.688 5.5 5.688 2.719 0 4.063-1 5.844-2.344L93.156 43c-.875.75-1.719 1.344-2.875 1.344-1.469 0-1.969-.969-1.969-3.032v-17.78c0-4.532-.53-6.907-2.562-8.97-1.469-1.468-4.156-2.406-7.75-2.406zm4.531 26.875c-2.156 3.5-4.656 4.844-7.219 4.844-2.937 0-5.124-1.781-5.124-5.625 0-4.938 3.406-6.781 6.218-8.125 4.031-1.969 5.438-2.625 6.125-3.656V39.03zm34.781-26.875c-4.374 0-8.656 1.969-10.906 7.719v-7.531c-1.844.625-4.156.875-6.656.875-1.281 0-2.625-.063-3.969-.188v1.344c3.719 0 4.875 1.813 4.875 5.656v20.032c0 3.562-1.344 4.593-4.875 4.593V46c1.469-.063 4.875-.25 7.688-.25 2.812 0 5.843.188 7.187.25v-1.344c-3.094 0-4.25-1.031-4.25-4.593v-14.22c0-6.53 3.594-11.655 8.969-11.655 4.625 0 5.187 3.406 5.187 7.374v18.5c0 3.563-1.156 4.594-4.218 4.594V46c1.344-.063 4.344-.25 7.156-.25 2.812 0 6.219.188 7.688.25v-1.344c-3.532 0-4.876-1.031-4.876-4.593V22.968c0-4.375-.624-6.657-2.218-8.407-1.469-1.53-3.532-2.406-6.782-2.406zm38.25 0c-4.374 0-8.656 1.969-10.906 7.719v-7.531c-1.844.625-4.156.875-6.656.875-1.281 0-2.625-.063-3.969-.188v1.344c3.719 0 4.875 1.813 4.875 5.656v20.032c0 3.562-1.344 4.593-4.875 4.593V46c1.469-.063 4.875-.25 7.688-.25 2.812 0 5.843.188 7.187.25v-1.344c-3.094 0-4.25-1.031-4.25-4.593v-14.22c0-6.53 3.594-11.655 8.969-11.655 4.625 0 5.187 3.406 5.187 7.374v18.5c0 3.563-1.156 4.594-4.218 4.594V46c1.344-.063 4.344-.25 7.156-.25 2.812 0 6.219.188 7.688.25v-1.344c-3.532 0-4.876-1.031-4.876-4.593V22.968c0-4.375-.624-6.657-2.218-8.407-1.469-1.53-3.532-2.406-6.782-2.406zm43.219 25.657c-2.219 4.78-5.562 6.406-9.406 6.406-4.906 0-9.781-5.125-9.781-13.907 0-1.406.062-2.875.218-4.093h20c0-9.657-4.468-14.063-11.968-14.063-8.782 0-14.469 6.906-14.469 18.157 0 9.812 5.437 16.593 14.719 16.593 6.344 0 10.562-4.312 11.968-8.593l-1.281-.5zm-11.187-24.438c4.281 0 6.281 5.375 6.062 11.625h-13.937c.687-8.063 4.062-11.625 7.875-11.625zm27.375-.281V2.406c-1.594.594-3.657.844-5.75.906v9.782h-6.157v1.281h6.157v21.438c0 4.562.625 7.062 2.5 8.968 1.406 1.407 3.125 2.125 6.062 2.125 5.188 0 7.438-3.843 8.313-8.843l-1.25-.313c-1.344 5-3.219 6.844-5.782 6.844-2.562 0-4.093-1.407-4.093-5.438V14.375h9.469v-1.281h-9.469zm20.125 0V2.406c-1.594.594-3.656.844-5.75.906v9.782h-6.156v1.281h6.156v21.438c0 4.562.625 7.062 2.5 8.968 1.406 1.407 3.125 2.125 6.062 2.125 5.188 0 7.438-3.843 8.313-8.843l-1.25-.313c-1.344 5-3.219 6.844-5.781 6.844-2.563 0-4.094-1.407-4.094-5.438V14.375h9.468v-1.281h-9.468zm38.875 24.718c-2.219 4.782-5.563 6.407-9.407 6.407-4.906 0-9.781-5.125-9.781-13.907 0-1.406.063-2.875.219-4.093h20c0-9.657-4.469-14.063-11.969-14.063-8.781 0-14.469 6.906-14.469 18.157 0 9.812 5.438 16.593 14.719 16.593 6.344 0 10.563-4.312 11.969-8.593l-1.281-.5zm-11.188-24.437c4.281 0 6.281 5.375 6.063 11.625h-13.938c.688-8.063 4.063-11.625 7.875-11.625z" fill="#000"/></svg>