<svg width="176" height="67" fill="none" xmlns="http://www.w3.org/2000/svg"><path d="M37.464 44.808c0 12.877-7.81 21.233-21.24 21.233-1.78 0-5.754-.137-8.22-.137-2.742 0-5.62 0-7.263.137v-1.233c3.973-.137 4.796-.822 4.796-5.068V30.699c0-4.247-.823-4.932-4.796-5.069v-1.233c1.37.137 3.562.137 5.755.137h1.37c2.74 0 6.577-.137 8.907-.137 13.84.137 20.691 7.398 20.691 20.411zm-26.72-14.246v29.452c0 4.11.822 5.068 4.385 5.068 12.88 0 16.306-7.123 16.306-20 0-13.15-4.11-19.589-16.306-19.589-3.563.137-4.385 1.096-4.385 5.069zm69.473-4.932c-3.974.137-4.796 1.37-4.796 5.617v17.67c0 5.48-.685 9.453-2.466 12.466-1.919 3.288-5.893 5.48-10.826 5.48-3.7 0-7.262-.822-9.866-3.15-3.425-3.288-4.385-6.576-4.385-14.658V30.699c0-4.247-.685-4.932-4.796-5.069v-1.233c1.645.137 4.522.137 7.537.137 2.74 0 5.618 0 7.537-.137v1.233c-3.974.137-4.797.822-4.797 5.069V50.15c0 8.082.96 14.657 9.319 14.657 8.906 0 11.236-6.438 11.236-15.205v-18.22c0-4.246-1.37-5.479-5.344-5.616v-1.233c1.37.137 3.974.137 6.029.137 2.055 0 4.11 0 5.481-.137v1.096h.137zm25.213 18.493c9.318 1.233 12.059 5.89 12.059 10.548 0 6.713-5.344 11.37-14.114 11.37-1.781 0-5.344-.137-10.14-.137-2.74 0-5.618 0-7.263.137v-1.233c3.974-.137 4.796-.822 4.796-5.068V30.699c0-4.247-.822-4.932-4.796-5.069v-1.233c1.645.137 4.66.137 7.126.137 3.7 0 7.536-.137 8.907-.137 8.221 0 12.469 3.836 12.469 9.315-.137 4.247-2.466 8.356-9.044 10.411zM96.112 30.7v13.287h3.974c6.989 0 8.633-4.52 8.633-9.589 0-5.753-2.329-8.767-8.222-8.767-3.7 0-4.385 1.096-4.385 5.069zm15.348 23.835c0-6.027-3.015-9.452-10.552-9.452h-4.933v14.932c0 4.11.823 4.931 4.385 4.931 7.811-.137 11.1-3.835 11.1-10.41zm43.026 6.712c1.234 3.013 2.878 3.698 4.111 3.698v1.233c-1.644-.137-4.111-.137-6.303-.137-3.015 0-5.892 0-7.537.137v-1.233c2.878-.137 4.111-.548 4.111-2.192 0-.684-.274-1.643-.685-2.74l-3.563-9.588h-14.251l-2.466 6.301c-.822 2.055-1.233 3.562-1.233 4.794 0 2.603 1.781 3.425 5.07 3.562v1.233c-2.193-.137-4.659-.137-6.852-.137-1.918 0-3.151 0-4.385.137v-1.233c1.508-.41 3.289-1.644 4.659-5.068l13.84-35.617h.959l14.525 36.85zm-16.991-29.59l-6.714 17.535h13.291l-6.577-17.535zM176 25.63c-3.974.137-4.796.822-4.796 5.069v29.178c0 4.246.822 4.931 4.796 5.068v1.233c-1.781-.137-4.796-.137-7.537-.137-3.014 0-5.892 0-7.536.137v-1.233c3.974-.137 4.796-.822 4.796-5.068V30.699c0-4.247-.822-4.932-4.796-5.069v-1.233c1.644.137 4.522.137 7.536.137 2.741 0 5.619 0 7.537-.137v1.233zM9.43 5.424c-.527 0-1.157-.015-1.728-.044v.3c.857.022 1.31.25 1.31.908 0 .308-.102.71-.3 1.224l-2.446 6.335L3.55 6.94c-.117-.3-.176-.527-.176-.703 0-.418.344-.528 1.062-.557v-.3c-.417.03-1.143.044-1.919.044-.571 0-1.201-.015-1.604-.044v.3c.315.015.733.198 1.033.96l3.662 9.433h.242l3.523-9.09c.344-.9.79-1.215 1.186-1.303v-.3c-.3.03-.615.044-1.128.044zm6.071-.044c-.461.03-1.215.044-1.904.044a32.38 32.38 0 01-1.919-.044v.3c1.018.044 1.216.198 1.216 1.29v7.44c0 1.092-.198 1.246-1.216 1.29v.3c.418-.03 1.143-.044 1.92-.044a35 35 0 011.903.044v-.3c-1.018-.044-1.215-.198-1.215-1.29V6.97c0-1.092.197-1.246 1.215-1.29v-.3zm4.468 6.328h1.157c3.105 0 3.947-1.904 3.947-3.354 0-1.744-1.2-2.96-3.618-2.96-.358 0-1.318.03-2.263.03-.659 0-1.413-.015-1.83-.044v.3c1.017.044 1.215.198 1.215 1.29v7.44c0 1.092-.198 1.246-1.216 1.29v.3c.418-.03 1.143-.044 1.92-.044.812 0 1.684.015 2.204.044v-.3c-1.26-.044-1.516-.198-1.516-1.29v-2.702zm1.113-6.028c1.816 0 2.49.945 2.49 2.835 0 1.53-.469 2.893-2.593 2.893h-1.01V6.969c0-1.032.197-1.289 1.113-1.289zm16.236-1.443c-.432.154-.974.213-1.56.213-.3 0-.615-.015-.93-.044v.315c.872 0 1.143.417 1.143 1.318v2.915c-.388-.637-1.091-.886-1.802-.886-1.802 0-3.406 1.348-3.391 4.08-.015 2.724 1.187 4.064 3.062 4.064 1.04 0 1.765-.483 2.13-1.377v1.334c.433-.154.975-.213 1.56-.213.301 0 .616.015.931.044v-.315c-.871 0-1.142-.417-1.142-1.318V4.237zm-3.046 11.521c-1.333 0-2.051-1.186-2.037-3.61-.014-2.535.872-3.736 2.059-3.736.776 0 1.384.344 1.677 1.157v4.46c-.235 1.136-.945 1.73-1.7 1.73zm8.84-7.69c-.96 0-1.678.286-2.103.564-.417.285-.703.63-.703 1.07 0 .541.3.93.813.93.535 0 .879-.3.879-.814 0-.49-.33-.82-.703-.915.344-.432.974-.535 1.487-.535.776 0 1.391.25 1.391 1.509v.93c0 .6-.79.857-1.794 1.274-1.502.63-2.417 1.158-2.417 2.344 0 1.172.9 1.677 1.904 1.677.718 0 1.663-.27 2.307-1.332 0 .703.242 1.332 1.29 1.332.637 0 .952-.234 1.369-.549l-.168-.256c-.206.176-.403.315-.674.315-.345 0-.462-.227-.462-.71v-4.168c0-1.062-.124-1.619-.6-2.102-.344-.344-.974-.564-1.817-.564zm1.061 6.299c-.505.82-1.091 1.135-1.692 1.135-.688 0-1.2-.418-1.2-1.318 0-1.158.798-1.59 1.457-1.905.945-.461 1.274-.615 1.435-.857v2.945zm6.123-6.08V5.784c-.374.139-.857.197-1.348.212v2.293h-1.443v.3h1.443v5.024c0 1.07.147 1.656.586 2.102.33.33.733.498 1.421.498 1.216 0 1.743-.9 1.948-2.072l-.293-.074c-.315 1.172-.754 1.604-1.355 1.604-.6 0-.96-.33-.96-1.274V8.588h2.22v-.3h-2.22zm5.214-3.764c-.527 0-.96.44-.96.96 0 .527.433.959.96.959.52 0 .96-.432.96-.96 0-.52-.44-.96-.96-.96zm.776 3.589c-.432.146-.974.205-1.56.205-.3 0-.615-.015-.93-.044v.315c.872 0 1.143.425 1.143 1.326v4.694c0 .835-.315 1.077-1.143 1.077V16c.344-.015 1.128-.059 1.817-.059.688 0 1.472.044 1.816.059v-.315c-.828 0-1.143-.242-1.143-1.077V8.112zm7.551-.044c-1.025 0-2.029.461-2.556 1.809V8.112c-.432.146-.974.205-1.56.205-.3 0-.615-.015-.93-.044v.315c.871 0 1.142.425 1.142 1.326v4.694c0 .835-.315 1.077-1.142 1.077V16c.344-.015 1.142-.059 1.802-.059.659 0 1.37.044 1.684.059v-.315c-.725 0-.996-.242-.996-1.077v-3.332c0-1.53.842-2.732 2.102-2.732 1.084 0 1.216.798 1.216 1.729v4.335c0 .835-.271 1.077-.989 1.077V16c.315-.015 1.018-.059 1.677-.059.66 0 1.458.044 1.802.059v-.315c-.828 0-1.142-.242-1.142-1.077v-4.006c0-1.025-.147-1.56-.52-1.97-.345-.359-.828-.564-1.59-.564zm6.306 6.284c-.513 0-.718-.168-.718-.498 0-.461.586-.828 1.26-1.186.33.095.703.139 1.106.139 1.574 0 2.776-.726 2.776-2.373 0-1.136-.572-1.831-1.443-2.154.036-.249.102-.454.153-.622.125-.36.257-.6.403-.733.095.586.257.945.799.945a.7.7 0 00.717-.718c0-.44-.27-.783-.79-.783-.44 0-.784.197-1.026.498-.227.3-.425.769-.527 1.333a4.055 4.055 0 00-1.062-.132c-1.575 0-2.769.718-2.769 2.366 0 1.12.55 1.809 1.392 2.138-1.428.645-1.875 1.253-1.875 1.897 0 1.004.974 1.143 1.501 1.143h.051c-.952.432-1.882 1.098-1.882 1.83 0 .916 1.501 1.378 3.018 1.378 2.907 0 4.196-1.743 4.196-3.076 0-1.048-.813-1.392-1.757-1.392h-3.523zm1.648-6.02c.842 0 1.37.498 1.37 2.102 0 1.604-.528 2.102-1.37 2.102-.835 0-1.363-.498-1.363-2.102 0-1.604.528-2.102 1.363-2.102zm-.162 10.232c-1.003 0-2.19-.418-2.19-1.436 0-.557.36-1.18 1.019-1.516h2.79c.916 0 1.143.286 1.143.835 0 1.443-1.502 2.117-2.762 2.117zM82.783 4.523c-.527 0-.96.44-.96.96 0 .527.433.959.96.959.52 0 .96-.432.96-.96 0-.52-.44-.96-.96-.96zm.776 3.589c-.432.146-.974.205-1.56.205-.3 0-.615-.015-.93-.044v.315c.872 0 1.143.425 1.143 1.326v4.694c0 .835-.315 1.077-1.143 1.077V16c.344-.015 1.128-.059 1.817-.059.688 0 1.472.044 1.816.059v-.315c-.828 0-1.142-.242-1.142-1.077V8.112zm7.551-.044c-1.025 0-2.029.461-2.556 1.809V8.112c-.432.146-.974.205-1.56.205-.3 0-.615-.015-.93-.044v.315c.871 0 1.142.425 1.142 1.326v4.694c0 .835-.315 1.077-1.142 1.077V16c.344-.015 1.142-.059 1.802-.059.659 0 1.37.044 1.684.059v-.315c-.725 0-.996-.242-.996-1.077v-3.332c0-1.53.842-2.732 2.102-2.732 1.084 0 1.216.798 1.216 1.729v4.335c0 .835-.271 1.077-.989 1.077V16c.315-.015 1.018-.059 1.677-.059.66 0 1.458.044 1.802.059v-.315c-.828 0-1.142-.242-1.142-1.077v-4.006c0-1.025-.147-1.56-.52-1.97-.345-.359-.828-.564-1.59-.564z" fill="#272525"/></svg>