<svg width="38" height="34" fill="none" xmlns="http://www.w3.org/2000/svg"><g clip-path="url(#clip0)" fill="#fff"><path d="M10.287 12.243c.21 0 1.12-.14 1.26-.35L16.726.979c.21-.35.07-.7-.28-.91-.35-.139-.77-.069-.98.28L9.657 11.264c-.14.35-.07.7.28.91.14 0 .21.07.35.07zm17.426 0c.14 0 .21 0 .35-.07.35-.21.42-.56.28-.91L22.464.35c-.14-.35-.56-.42-.91-.28-.35.21-.42.56-.28.91l5.179 10.913c.14.21 1.05.35 1.26.35z"/><path d="M37.3 10.914H.7c-.35 0-.7.56-.7 1.189 0 .63.28 1.19.7 1.19h1.05L6.438 32.6c.07.77.7 1.399 1.47 1.399h22.184c.77 0 1.47-.63 1.47-1.4l4.689-19.308h1.05c.35 0 .699-.56.699-1.19 0-.699-.35-1.188-.7-1.188zM6.648 13.642h2.1l.77 7.975h-1.89l-.98-7.975zm1.96 16.65l-.77-6.576h1.89l.63 6.576h-1.75zm3.709-16.65h2.1l.35 7.975h-1.96l-.49-7.975zm1.05 16.65l-.42-6.576h1.89l.279 6.576h-1.75zm6.508 0h-1.75l-.07-6.576h1.89l-.07 6.576zm.07-8.675h-1.96l-.07-7.975h2.1l-.07 7.975zm4.689 8.675h-1.75l.28-6.576h1.89l-.42 6.576zm.56-8.675h-1.96l.35-7.975h2.1l-.49 7.975zm4.198 8.675h-1.75l.63-6.576h1.89l-.77 6.576zm.98-8.675h-1.96l.77-7.975h2.1l-.91 7.975z"/></g><defs><clipPath id="clip0"><path fill="#fff" d="M0 0h38v34H0z"/></clipPath></defs></svg>