<svg width="61" height="61" fill="none" xmlns="http://www.w3.org/2000/svg"><path d="M0 30.5C0 13.64 13.64 0 30.5 0S61 13.64 61 30.5 47.36 61 30.5 61 0 47.322 0 30.5z" fill="#1A1A1A"/><path d="M2.304 30.5c0-15.58 12.617-28.196 28.196-28.196 15.58 0 28.196 12.617 28.196 28.196 0 15.58-12.617 28.196-28.196 28.196-15.58 0-28.196-12.617-28.196-28.196z" fill="#fff"/><path d="M3.986 30.5c0-14.628 11.85-26.477 26.477-26.477 14.629 0 26.478 11.849 26.478 26.477S45.09 56.977 30.463 56.977c-14.628 0-26.477-11.849-26.477-26.477z" fill="#1A1A1A"/><path d="M20.882 30.5V16.237l12.36 7.132L45.605 30.5l-12.361 7.131-12.361 7.132V30.5z" fill="#fff"/></svg>